<svg xmlns="http://www.w3.org/2000/svg" viewBox="0 0 1000 1000"><path d="M500.05 0C223.91 0 .03 223.88.03 500.02S223.91 1000 500.05 1000s499.98-223.83 499.98-499.98C1000.03 223.88 776.2 0 500.05 0z" opacity=".435" fill="red"/><path d="M500.04 0l-16.347 250.53L434.768 4.27l16.494 250.53-80.626-237.75 49.042 246.21-110.98-225.18 80.772 237.7L250.03 67.01l111.1 225.12-165.49-188.8 139.55 208.71-188.71-165.58 165.58 188.71-208.71-139.55 188.83 165.49-225.15-111.1 208.8 139.41-237.72-80.743 225.21 110.98-246.23-49.072 237.75 80.655-250.5-16.494 246.23 48.896L.04 499.989l250.53 16.377L4.24 565.255l250.53-16.493-237.73 80.655 246.21-49.072-225.21 110.98 237.72-80.772-208.82 139.43 225.17-111.09-188.87 165.49L312 664.833l-165.58 188.71 188.71-165.58-139.55 208.71 165.49-188.83-111.1 225.15 139.44-208.77-80.772 237.7 110.98-225.21-49.042 246.23 80.626-237.75-16.494 250.53 48.925-246.26 16.347 250.53 16.347-250.53 48.896 246.26-16.494-250.53 80.655 237.75-49.042-246.23 110.98 225.21-80.772-237.7 139.41 208.77-111.1-225.15 165.49 188.83-139.55-208.71 188.71 165.58-165.59-188.71 208.71 139.55-188.79-165.49 225.12 111.09-208.78-139.43 237.73 80.77-225.21-110.98 246.23 49.072-237.78-80.655 250.53 16.494-246.26-48.896 250.53-16.377-250.53-16.347 246.26-48.896-250.53 16.494 237.78-80.655-246.23 49.072 225.21-110.98-237.72 80.743 208.77-139.41-225.12 111.1 188.8-165.49-208.71 139.55 165.58-188.71-188.71 165.58 139.55-208.71-165.49 188.8 111.1-225.12-139.41 208.77 80.772-237.7-110.98 225.18 49.042-246.21-80.655 237.75 16.494-250.53-48.896 246.26L499.98-.008z" opacity=".435" fill="#00f"/></svg>